<svg width="60" height="60" xmlns="http://www.w3.org/2000/svg" xmlns:xlink="http://www.w3.org/1999/xlink"><defs><linearGradient x1="50%" y1="0%" x2="50%" y2="100%" id="b"><stop stop-color="#558CDC" offset="0%"/><stop stop-color="#7CA2E9" offset="100%"/></linearGradient><linearGradient x1="50%" y1="100%" x2="50%" y2="6.539%" id="d"><stop stop-color="#6A99E3" offset="0%"/><stop stop-color="#98BFF4" offset="100%"/></linearGradient><circle id="a" cx="30" cy="30" r="30"/></defs><g fill="none" fill-rule="evenodd"><mask id="c" fill="#fff"><use xlink:href="#a"/></mask><use fill="#D6E4FF" xlink:href="#a"/><path d="M7.933 51.062c2.8-3.984 11.926-5.502 14.215-6.935 1.527-.955 2.075-2.947 1.645-5.973 2.562 2.285 4.473 3.426 5.732 3.422 1.288-.004 3.199-1.158 5.732-3.46-.43 3.027.118 5.018 1.644 5.973 2.29 1.433 11.416 2.951 14.216 6.936 1.382 2.62-14.793 11.057-21.408 10.567-6.36.851-23.185-7.859-21.776-10.53z" fill="url(#b)" mask="url(#c)"/><path d="M30.005 41.984c6.37.253 14.088-6.286 14.995-17.242C44.816 12.22 38.682 7.458 30.005 7.5c-8.282 0-15.297 5.09-14.996 17.242 1.615 10.805 9.512 17.63 14.996 17.242z" fill="url(#d)" mask="url(#c)"/></g></svg>