<?xml version="1.0" encoding="UTF-8"?>
<svg width="60px" height="60px" viewBox="0 0 60 60" version="1.1" xmlns="http://www.w3.org/2000/svg" xmlns:xlink="http://www.w3.org/1999/xlink">
    <!-- Generator: Sketch 50.2 (55047) - http://www.bohemiancoding.com/sketch -->
    <title>Slice 1</title>
    <desc>Created with Sketch.</desc>
    <defs>
        <circle id="path-1" cx="30" cy="30" r="30"></circle>
        <linearGradient x1="50%" y1="0%" x2="50%" y2="100%" id="linearGradient-3">
            <stop stop-color="#558CDC" offset="0%"></stop>
            <stop stop-color="#7CA2E9" offset="100%"></stop>
        </linearGradient>
        <linearGradient x1="50%" y1="100%" x2="50%" y2="6.53873166%" id="linearGradient-4">
            <stop stop-color="#6A99E3" offset="0%"></stop>
            <stop stop-color="#98BFF4" offset="100%"></stop>
        </linearGradient>
    </defs>
    <g id="Page-1" stroke="none" stroke-width="1" fill="none" fill-rule="evenodd">
        <g id="Group-2">
            <mask id="mask-2" fill="white">
                <use xlink:href="#path-1"></use>
            </mask>
            <use id="Oval-2" fill="#D6E4FF" xlink:href="#path-1"></use>
            <path d="M7.93284363,51.0624706 C10.7333315,47.0782049 19.8585139,45.5598995 22.1484375,44.1269194 C23.6750533,43.1715993 24.2231428,41.180475 23.792706,38.1535465 C26.3547739,40.4392195 28.2655127,41.5799768 29.5249225,41.5758184 C30.8131645,41.5715649 32.7239033,40.4181897 35.2571389,38.1156928 C34.8267022,41.1426213 35.3747916,43.1337456 36.9014074,44.0890657 C39.191331,45.5220458 48.3165134,47.0403512 51.1170013,51.024617 C52.4991061,53.6453787 36.3235301,62.0816284 29.7087566,61.5916398 C23.3493822,62.443224 6.52439273,53.7331901 7.93284363,51.0624706 Z" id="Combined-Shape" fill="url(#linearGradient-3)" mask="url(#mask-2)"></path>
            <path d="M30.0046885,41.9842775 C36.3749146,42.2365617 44.0929682,35.6984375 45,24.7422803 C44.8162419,12.2198464 38.6824905,7.4576709 30.0046885,7.50028318 C21.7230066,7.50028318 14.7077883,12.5904201 15.009377,24.7422803 C16.623567,35.5474536 24.5205893,42.3723523 30.0046885,41.9842775 Z" id="Oval-3" fill="url(#linearGradient-4)" mask="url(#mask-2)"></path>
        </g>
    </g>
</svg>